<svg id="Layer_1" enable-background="new 0 0 512 512" height="512" viewBox="0 0 512 512" width="512" xmlns="http://www.w3.org/2000/svg"><path d="m158.664 76.751c9.435-17.241 16.887-30.858.313-55.764-2.142-3.219-1.269-7.564 1.95-9.706s7.564-1.269 9.706 1.95c21.264 31.955 10.133 52.295.312 70.241-9.435 17.24-16.887 30.858-.312 55.765 2.142 3.218 1.269 7.563-1.95 9.706-1.192.793-2.54 1.173-3.872 1.173-2.264 0-4.485-1.096-5.834-3.123-21.265-31.956-10.134-52.296-.313-70.242zm-68.381 69.132c1.349 2.026 3.57 3.123 5.834 3.123 1.332 0 2.679-.38 3.872-1.173 3.218-2.142 4.091-6.487 1.95-9.706-16.574-24.906-9.122-38.524.313-55.765 9.82-17.945 20.951-38.285-.313-70.241-2.143-3.218-6.487-4.091-9.706-1.95-3.218 2.142-4.091 6.487-1.95 9.706 16.574 24.906 9.122 38.524-.313 55.764-9.82 17.947-20.951 38.287.313 70.242zm-58.988 3.059c3.218-2.142 4.091-6.487 1.95-9.706-16.574-24.907-9.122-38.524.313-55.765 9.821-17.945 20.951-38.285-.313-70.241-2.142-3.219-6.486-4.091-9.706-1.95-3.218 2.142-4.091 6.487-1.95 9.706 16.574 24.906 9.122 38.524-.312 55.764-9.821 17.946-20.952 38.286.312 70.241 1.349 2.026 3.57 3.123 5.834 3.123 1.332.001 2.68-.378 3.872-1.172zm459.429-66.579c9.82-17.945 20.951-38.285-.313-70.241-2.142-3.218-6.487-4.091-9.706-1.95-3.218 2.142-4.091 6.487-1.95 9.706 16.574 24.906 9.122 38.524-.313 55.764-9.821 17.946-20.952 38.286.313 70.241 1.349 2.026 3.57 3.123 5.834 3.123 1.332 0 2.679-.38 3.872-1.173 3.218-2.142 4.091-6.487 1.95-9.706-16.575-24.906-9.122-38.523.313-55.764zm-80.662 63.52c1.349 2.026 3.57 3.123 5.834 3.123 1.332 0 2.679-.38 3.872-1.173 3.218-2.142 4.091-6.487 1.95-9.706-16.574-24.906-9.122-38.524.313-55.764 9.82-17.946 20.952-38.286-.313-70.241-2.142-3.218-6.486-4.091-9.706-1.95-3.218 2.142-4.091 6.487-1.95 9.706 16.574 24.906 9.122 38.524-.313 55.764-9.821 17.946-20.952 38.286.313 70.241zm74.776 150.293v133.78c0 21.312-24.198 39.78-69.978 53.409-42.529 12.661-98.947 19.635-158.86 19.635s-116.331-6.974-158.861-19.635c-45.78-13.629-69.978-32.098-69.978-53.409v-133.78c0-21.986 25.564-40.832 73.926-54.543l42.988-31.855c4.923-3.65 22.566-8.674 55.54-17.251 4.853-1.262 8.686-2.259 10.885-2.875 13.464-3.72 99.648 4.348 108.529 6.648l54.32 14.071c7.052 1.827 12.8 6.991 15.376 13.813l4.911 13.015c58.845 13.605 91.202 34.487 91.202 58.977zm-392.129-30.91c-3.742 2.774-4.529 8.079-1.753 11.822 1.345 1.813 3.315 2.995 5.548 3.326 2.232.334 4.462-.226 6.275-1.571l57.406-42.539c.686-.508 1.459-.887 2.281-1.117l50.54-14.142c2.212-.619 4.587-.112 6.355 1.354s2.704 3.707 2.505 5.996c-1.823 20.922-3.639 41.846-5.455 62.769l-1.039 11.974c15.604 1.186 31.83 1.786 48.335 1.786 11.873 0 23.683-.313 35.193-.935l.729-8.399c1.81-20.853 3.62-41.707 5.437-62.559.179-2.051 1.252-3.92 2.934-5.109 1.681-1.188 3.801-1.576 5.795-1.06l44.035 11.407c2.203.571 3.992 2.177 4.794 4.307l17.467 46.325c.798 2.118 2.371 3.797 4.43 4.729 2.06.933 4.359 1.007 6.473.211 4.367-1.645 6.582-6.535 4.938-10.902l-20.303-53.81c-.971-2.571-3.136-4.518-5.79-5.205l-54.319-14.071c-8.862-2.295-92.091-9.152-101.271-6.712-2.298.643-6.186 1.654-11.108 2.935-12.617 3.282-46.133 12.001-50.805 15.004zm303.219 41.676c-.099.037-.2.061-.299.096 10.779-3.043 21.118-6.63 30.734-10.86-5.293-2.328-11.02-4.445-16.262-6.223-1.381 7.495-6.537 14.111-14.173 16.987zm-310.358-10.798c.016.007.03.014.045.02.004-.015.017-.039.021-.056v.138c-.008-.031-.042-.083-.066-.102zm.067.029c50.4 22.156 120.45 26.801 170.363 26.801 39.417 0 91.39-2.906 136.301-15.021-4.549.895-9.249.381-13.555-1.57-5.466-2.475-9.64-6.931-11.755-12.546l-6.077-16.117c-14.224-2.501-29.364-4.467-45.171-5.848-.721 8.309-1.444 16.618-2.165 24.927l-1.252 14.427c-.299 3.448-3.074 6.16-6.528 6.38-13.686.874-27.847 1.316-42.09 1.316-19.387 0-38.408-.812-56.533-2.413-3.847-.34-6.692-3.73-6.358-7.578l1.647-18.979c.541-6.237 1.084-12.473 1.625-18.71-29.308 2.181-56.245 6.262-80.16 12.163-1.662.409-3.73.96-5.912 1.57l-6.901 5.114c-4.815 3.571-10.733 5.055-16.667 4.173-.935-.139-1.845-.353-2.741-.602-2.169.85-4.204 1.692-6.071 2.513zm121.404-58.921-39.559 11.069-21.774 16.135c18.568-3.389 38.508-5.85 59.608-7.344.575-6.62 1.149-13.24 1.725-19.86zm148.161 25.32-4.396-11.66-32.51-8.421c-.448 5.145-.894 10.291-1.341 15.436 13.237 1.155 26.033 2.713 38.247 4.645zm115.636 167.384v-107.331c-11.654 10.259-30.458 19.362-55.978 26.96-42.529 12.661-98.947 19.635-158.86 19.635s-116.331-6.974-158.861-19.635c-25.52-7.598-44.324-16.701-55.978-26.96v107.331c0 13.861 22.419 28.812 59.972 39.991 41.27 12.286 96.269 19.053 154.867 19.053s113.597-6.767 154.866-19.053c37.553-11.179 59.972-26.13 59.972-39.991zm0-133.78c0-15.29-27.537-31.738-71.208-43.091l8.059 21.358c7.064 2.218 16.151 5.326 24.318 8.919 5.159 2.271 8.362 7.181 8.362 12.814 0 5.636-3.205 10.546-8.362 12.814-52.57 23.128-124.73 27.983-176.007 27.983s-123.437-4.855-176.007-27.983c-5.157-2.269-8.362-7.179-8.362-12.814 0-5.166 2.699-9.717 7.121-12.188-3.675-5.841-4.342-12.837-2.282-19.036-22.53 9.607-35.308 20.654-35.308 31.224 0 13.861 22.419 28.812 59.972 39.991 41.27 12.286 96.269 19.053 154.866 19.053s113.597-6.767 154.866-19.053c37.553-11.18 59.972-26.13 59.972-39.991zm-44.408.032c-.015-.007-.03-.014-.045-.02-.004.015-.017.039-.021.057v-.138c.008.03.041.082.066.101zm-203.098-153.538c0-24.473 19.91-44.383 44.383-44.383s44.384 19.91 44.384 44.383-19.911 44.384-44.384 44.384-44.383-19.911-44.383-44.384zm14 0c0 16.754 13.63 30.384 30.383 30.384 16.754 0 30.384-13.63 30.384-30.384 0-16.753-13.63-30.383-30.384-30.383-16.753 0-30.383 13.63-30.383 30.383z"/></svg>